<?xml version="1.0" encoding="utf-8"?>
<!-- Generator: Adobe Illustrator 26.0.3, SVG Export Plug-In . SVG Version: 6.00 Build 0)  -->
<svg version="1.1" id="Layer_1" xmlns="http://www.w3.org/2000/svg" xmlns:xlink="http://www.w3.org/1999/xlink" x="0px" y="0px"
	 viewBox="0 0 415.2 500" style="enable-background:new 0 0 415.2 500;" xml:space="preserve">
<g>
	<path class="st0" fill="#323232" d="M286.1,10L150,345.8L14.9,10h107.5l28.6,103.3L182.5,10H286.1z"/>
</g>
<g>
	<path class="st1" fill="#B62227" d="M405.2,10.3v456.6h-87.8V154.4l-38.9,124.1h19.2v67.9H175.8L315,10.3H405.2z"/>
</g>
<path class="st0" fill="#323232"  d="M10,490v-95.1h14.6v7.3c1.2-1.3,2-2.1,2.5-2.6c0.5-0.5,1.2-1.2,2.4-2.1c1.1-1,2.1-1.6,2.9-2
	c0.8-0.4,1.9-0.8,3.1-1.1c1.3-0.4,2.6-0.5,4-0.5c2.5,0,4.7,0.4,6.6,1.3c1.9,0.9,3.5,2,4.8,3.2c1.3,1.3,2.3,3.1,3.2,5.4
	c0.9,2.3,1.5,4.5,2,6.4c0.4,1.9,0.8,4.5,1,7.7c0.2,3.2,0.4,5.9,0.4,7.9c0,2,0.1,4.8,0.1,8.3v1.1c0,3.2-0.2,6.3-0.5,9.3
	c-0.3,3-0.9,6-1.8,9.1c-0.9,3.1-1.9,5.7-3.3,8c-1.3,2.2-3.1,4.1-5.3,5.5c-2.2,1.4-4.7,2.1-7.5,2.1c-5,0-9.8-2.5-14.6-7.6V490H10z
	 M35.6,457.1c1.6,0,2.9-0.6,3.9-1.7c1-1.1,1.8-2.8,2.3-4.9c0.5-2.1,0.8-4.2,1-6.3c0.2-2.1,0.3-4.5,0.3-7.3l-0.1-9.7
	c0-1.7,0-3.1,0-4.1c0-1-0.1-2.4-0.2-4.2c-0.1-1.7-0.3-3.2-0.5-4.3c-0.2-1.1-0.5-2.3-0.9-3.7c-0.4-1.3-0.9-2.4-1.5-3.1
	c-0.6-0.8-1.3-1.4-2.3-1.9c-0.9-0.5-2-0.8-3.2-0.8c-0.6,0-1.1,0-1.6,0.1c-0.5,0.1-1,0.2-1.6,0.4c-0.6,0.2-1,0.3-1.4,0.5
	c-0.4,0.1-0.8,0.4-1.4,0.7c-0.6,0.3-1,0.5-1.2,0.7c-0.2,0.1-0.7,0.4-1.3,0.8c-0.6,0.4-1,0.6-1.1,0.7v45.3
	C28,456.1,31.7,457.1,35.6,457.1z"/>
<path class="st0" fill="#323232"  d="M88.3,469.1c-3.5,0-6.6-0.6-9.2-1.8c-2.6-1.2-4.7-2.8-6.2-4.8c-1.5-2-2.8-4.5-3.7-7.5c-0.9-3.1-1.6-6.1-2-9.2
	c-0.4-3.1-0.6-6.6-0.7-10.7c-0.1-3.2-0.1-6.4,0-9.6c0.1-3.8,0.4-7.2,0.8-10.1c0.4-3,1.1-5.8,2.1-8.6c1-2.8,2.3-5.1,3.9-6.9
	c1.6-1.8,3.7-3.2,6.2-4.3c2.6-1.1,5.6-1.6,9-1.6c3.1,0,5.9,0.4,8.3,1.2c2.4,0.8,4.4,2.1,5.9,3.7c1.6,1.7,2.9,3.5,3.9,5.5
	c1.1,2,1.8,4.5,2.4,7.3c0.5,2.9,0.9,5.7,1.1,8.5c0.2,2.8,0.3,6,0.3,9.6v1.7H81.1v3.7c0,0.5,0,1.3,0,2.3c-0.1,1.4-0.1,2.9,0,4.4
	c0.1,1.5,0.1,3,0.2,4.4c0.1,1.5,0.3,2.8,0.6,4.1c0.3,1.3,0.8,2.5,1.3,3.5c0.5,1,1.2,1.8,2.1,2.3c0.9,0.6,2,0.9,3.2,0.9
	c1.5,0,2.8-0.3,3.8-0.9c1-0.6,1.7-1.5,2.2-2.7c0.5-1.2,0.8-2.4,1-3.5c0.2-1.2,0.3-2.7,0.3-4.5v-3.1h14.5v2.9
	c-0.3,7.8-2.3,13.7-5.8,17.7C101,467.1,95.6,469.1,88.3,469.1z M81.1,424.1h14.5v-4.4c0-1.9-0.2-3.6-0.3-5.1c-0.2-1.4-0.5-2.9-1-4.3
	c-0.5-1.4-1.2-2.6-2.2-3.3c-1-0.8-2.2-1.1-3.7-1.1c-1.5,0-2.7,0.4-3.7,1.2c-1,0.8-1.8,2-2.2,3.5c-0.5,1.5-0.8,3-1,4.4
	c-0.2,1.5-0.3,3.2-0.3,5.2V424.1z"/>
<path class="st0" fill="#323232"  d="M156.4,462.2c-3.4,4.6-9,6.9-16.9,6.9c-7.9,0-13.5-2.3-16.9-6.9c-3.4-4.6-5.1-11.2-5.1-19.8v-22
	c0-8.6,1.7-15.2,5.1-19.8c3.4-4.6,9-6.9,16.9-6.9c7.9,0,13.5,2.3,16.9,6.9c3.4,4.6,5.1,11.2,5.1,19.8v22
	C161.5,451,159.8,457.6,156.4,462.2z M136.8,456.6c0.8,0.3,1.7,0.5,2.7,0.5c1,0,1.9-0.2,2.7-0.5c0.8-0.3,1.4-0.7,1.9-1.1
	c0.5-0.4,0.9-1.1,1.3-1.9c0.3-0.9,0.6-1.6,0.8-2.3c0.2-0.6,0.3-1.6,0.4-2.8c0.1-1.2,0.1-2.2,0.1-2.9c0-0.7,0-1.8,0-3.2v-22
	c0-1.4,0-2.5,0-3.2c0-0.7-0.1-1.7-0.1-2.9c-0.1-1.2-0.2-2.2-0.4-2.8c-0.2-0.6-0.5-1.4-0.8-2.3c-0.3-0.9-0.8-1.5-1.3-1.9
	c-0.5-0.4-1.2-0.8-1.9-1.1c-0.8-0.3-1.7-0.5-2.7-0.5c-1,0-1.9,0.2-2.7,0.5c-0.8,0.3-1.4,0.7-1.9,1.1c-0.5,0.4-0.9,1.1-1.3,1.9
	c-0.3,0.9-0.6,1.6-0.8,2.3c-0.2,0.6-0.3,1.6-0.4,2.8c-0.1,1.2-0.1,2.2-0.1,2.9c0,0.7,0,1.8,0,3.2v22c0,1.4,0,2.5,0,3.2
	c0,0.7,0.1,1.7,0.1,2.9c0.1,1.2,0.2,2.2,0.4,2.8c0.2,0.6,0.5,1.4,0.8,2.3c0.3,0.9,0.8,1.5,1.3,1.9
	C135.4,455.9,136,456.3,136.8,456.6z"/>
<path class="st0" fill="#323232"  d="M171.5,490v-95.1h14.6v7.3c1.2-1.3,2-2.1,2.5-2.6c0.5-0.5,1.2-1.2,2.4-2.1c1.1-1,2.1-1.6,2.9-2
	c0.8-0.4,1.9-0.8,3.1-1.1c1.3-0.4,2.6-0.5,4-0.5c2.5,0,4.7,0.4,6.6,1.3c1.9,0.9,3.5,2,4.8,3.2c1.3,1.3,2.3,3.1,3.2,5.4
	c0.9,2.3,1.5,4.5,2,6.4c0.4,1.9,0.8,4.5,1,7.7c0.2,3.2,0.4,5.9,0.4,7.9c0,2,0.1,4.8,0.1,8.3v1.1c0,3.2-0.2,6.3-0.5,9.3
	c-0.3,3-0.9,6-1.8,9.1c-0.9,3.1-1.9,5.7-3.3,8c-1.3,2.2-3.1,4.1-5.3,5.5c-2.2,1.4-4.7,2.1-7.5,2.1c-5,0-9.8-2.5-14.6-7.6V490H171.5z
	 M197.1,457.1c1.6,0,2.9-0.6,3.9-1.7c1-1.1,1.8-2.8,2.3-4.9c0.5-2.1,0.8-4.2,1-6.3c0.2-2.1,0.3-4.5,0.3-7.3l-0.1-9.7
	c0-1.7,0-3.1,0-4.1c0-1-0.1-2.4-0.2-4.2c-0.1-1.7-0.3-3.2-0.5-4.3c-0.2-1.1-0.5-2.3-0.9-3.7c-0.4-1.3-0.9-2.4-1.5-3.1
	c-0.6-0.8-1.3-1.4-2.3-1.9c-0.9-0.5-2-0.8-3.2-0.8c-0.6,0-1.1,0-1.6,0.1c-0.5,0.1-1,0.2-1.6,0.4c-0.6,0.2-1,0.3-1.4,0.5
	c-0.4,0.1-0.8,0.4-1.4,0.7c-0.6,0.3-1,0.5-1.2,0.7c-0.2,0.1-0.7,0.4-1.3,0.8c-0.6,0.4-1,0.6-1.1,0.7v45.3
	C189.5,456.1,193.1,457.1,197.1,457.1z"/>
<path class="st0" fill="#323232"  d="M229.1,468V365.6h14.6V468H229.1z"/>
<path class="st0" fill="#323232"  d="M275.5,469.1c-3.5,0-6.6-0.6-9.2-1.8c-2.6-1.2-4.7-2.8-6.2-4.8c-1.5-2-2.8-4.5-3.7-7.5c-0.9-3.1-1.6-6.1-2-9.2
	c-0.4-3.1-0.6-6.6-0.7-10.7c-0.1-3.2-0.1-6.4,0-9.6c0.1-3.8,0.4-7.2,0.8-10.1c0.4-3,1.1-5.8,2.1-8.6c1-2.8,2.3-5.1,3.9-6.9
	c1.6-1.8,3.7-3.2,6.2-4.3c2.6-1.1,5.6-1.6,9-1.6c3.1,0,5.9,0.4,8.3,1.2c2.4,0.8,4.4,2.1,5.9,3.7c1.6,1.7,2.9,3.5,3.9,5.5
	c1.1,2,1.8,4.5,2.4,7.3c0.5,2.9,0.9,5.7,1.1,8.5c0.2,2.8,0.3,6,0.3,9.6v1.7h-29.3v3.7c0,0.5,0,1.3,0,2.3c-0.1,1.4-0.1,2.9,0,4.4
	c0.1,1.5,0.1,3,0.2,4.4c0.1,1.5,0.3,2.8,0.6,4.1c0.3,1.3,0.8,2.5,1.3,3.5c0.5,1,1.2,1.8,2.1,2.3c0.9,0.6,2,0.9,3.2,0.9
	c1.5,0,2.8-0.3,3.8-0.9c1-0.6,1.7-1.5,2.2-2.7c0.5-1.2,0.8-2.4,1-3.5c0.2-1.2,0.3-2.7,0.3-4.5v-3.1h14.5v2.9
	c-0.3,7.8-2.3,13.7-5.8,17.7C288.2,467.1,282.8,469.1,275.5,469.1z M268.3,424.1h14.5v-4.4c0-1.9-0.2-3.6-0.3-5.1
	c-0.2-1.4-0.5-2.9-1-4.3c-0.5-1.4-1.2-2.6-2.2-3.3c-1-0.8-2.2-1.1-3.7-1.1c-1.5,0-2.7,0.4-3.7,1.2c-1,0.8-1.8,2-2.2,3.5
	c-0.5,1.5-0.8,3-1,4.4c-0.2,1.5-0.3,3.2-0.3,5.2V424.1z"/>
</svg>
